<svg xmlns="http://www.w3.org/2000/svg" width="256" height="256" viewBox="0 0 100 100"><rect width="100" height="100" rx="20" fill="#ffffff"></rect><path fill="#2f80ed" d="M19.24 21.84L26.52 21.84L26.52 77.60L19.24 77.60L19.24 21.84ZM38.76 21.84L46.04 21.84L46.04 57.12Q46.04 64.56 49.68 68.16Q53.32 71.76 59.80 71.76L59.80 71.76Q66.20 71.76 69.84 68.16Q73.48 64.56 73.48 57.12L73.48 57.12L73.48 21.84L80.76 21.84L80.76 57.04Q80.76 64.00 77.96 68.76Q75.16 73.52 70.40 75.84Q65.64 78.16 59.72 78.16L59.72 78.16Q53.80 78.16 49.04 75.84Q44.28 73.52 41.52 68.76Q38.76 64.00 38.76 57.04L38.76 57.04L38.76 21.84Z"></path></svg>